<svg width="3359" height="1131" viewBox="0 0 3359 1131" fill="none" xmlns="http://www.w3.org/2000/svg">
<path d="M539 1.1335C521.933 2.20016 497.133 4.60016 484.333 6.46683C323.933 29.8002 181.533 120.6 92.4667 256.333C42.6 332.333 13.1333 415.267 2.86665 508.733C-0.200016 536.467 -0.200016 594.867 2.86665 622.6C17.4 755.4 73 872.2 165.667 965C258.467 1057.67 375.133 1113.27 508.067 1127.8C535.8 1130.87 594.2 1130.87 621.933 1127.8C754.867 1113.27 871.533 1057.67 964.333 965C1057 872.2 1112.6 755.4 1127.13 622.6C1130.2 594.867 1130.2 536.467 1127.13 508.733C1112.6 375.8 1057 259.133 964.333 166.333C871.933 74.0668 753.133 17.4002 623.267 3.66683C604.333 1.66683 554.467 0.200165 539 1.1335ZM618.333 343C750.733 348.867 818.867 362.6 840.867 387.8L845.533 393L841.933 393.667C838.2 394.333 838.333 394.467 849.133 407C869.933 431.267 891.533 467.8 904.867 501.533C909.933 514.067 910.6 517 912.067 534.733L913.667 554.333L917.933 554.733C921.4 555.133 922.467 556.067 924.333 560.733C927.4 568.2 927.4 583.133 924.333 590.6C922.333 595.8 921.533 596.333 917.533 596.333H913V626.333V656.333H903.133H893.267L890.333 647.267C875.933 603.4 845.533 575.667 797.267 562.6L781.667 558.333L494.067 557.933L206.333 557.667V476.6V395.667L209.533 389C213.267 381 215.667 378.733 224.333 375C252.067 363 361.933 349.4 481 343.133C511.133 341.533 583.8 341.533 618.333 343ZM782.733 577.8C797 580.6 812.2 586.467 824.6 593.933C842.467 604.6 864.867 632.333 873.133 654.333L877.4 665.667H895.8C905.933 665.667 915.8 666.333 917.933 667.133C923.267 669.133 928.733 674.733 930.6 680.2C933.267 688.333 932.467 703.4 928.867 710.6C923.267 721.533 924.467 721.267 877.4 722.2L835.667 723.133V719.4C835.533 711.533 831.533 696.6 826.867 687C820.467 674.067 805.4 658.6 793.133 652.467C761.933 636.6 725.4 641.4 700.467 664.333C686.2 677.533 678.2 693 675.4 712.6L673.933 723H559.4H445V717.267C445 709.133 441.667 697.133 436.333 686.333C412.867 638.6 346.467 628.333 308.2 666.467C294.2 680.333 285 700.733 285 717.667V723H244.867C221.267 723 203.8 722.467 202.333 721.667C199 719.933 197 713.267 197.133 704.467C197.133 694.867 199.533 688.067 203.4 686.333L206.333 685V631.4V577.667L214.067 577.533C222.467 577.267 559.933 575.667 688.067 575.267C765.267 575 769.933 575.133 782.733 577.8ZM385 659C421.667 669.667 441.667 710.6 427.8 746.867C420.333 766.6 399.8 783.8 378.6 788.2C345.533 795 312.067 775.933 301 743.8C287.4 704.2 314.867 661.267 357 656.467C366.733 655.267 374.467 656.067 385 659ZM776.333 659.267C803.133 667.933 822.333 694.2 822.333 722.333C822.333 782.333 749.133 812.067 707 769.133C673.4 734.867 685.267 679.4 730.2 660.467C743.267 655 761.667 654.467 776.333 659.267Z" fill="#3762A4"/>
<path d="M265.267 404.6C262.733 407.133 263 519.4 265.533 521.533C266.733 522.6 283.933 522.867 326.467 522.733L385.667 522.333V463V403.667L326.333 403.267C281.267 403 266.467 403.4 265.267 404.6Z" fill="#3762A4"/>
<path d="M418.067 404.467C415.8 405.667 415.667 409.933 415.667 463.667C415.667 519.533 415.8 521.667 418.2 523C421.8 524.867 532.2 524.867 535.8 523C538.2 521.667 538.333 519.533 538.333 463.933C538.333 420.733 537.933 405.8 536.733 404.6C534.6 402.467 421.533 402.333 418.067 404.467Z" fill="#3762A4"/>
<path d="M569.4 403.933C567 404.867 566.867 520.333 569.267 522.733C571.267 524.733 684.467 525 687.667 523C689.4 521.933 689.667 513.667 690.067 464.467C690.333 413.533 690.2 407 688.333 405.133C686.333 403.267 679.667 403 628.6 403.133C596.867 403.133 570.2 403.533 569.4 403.933Z" fill="#3762A4"/>
<path d="M719.4 404.467C717.133 405.667 717 409.933 717 463.667C717 519.533 717.133 521.667 719.533 523C722.333 524.467 864.467 525 868.333 523.533C874.333 521.133 877.533 502.333 873.8 490.733C867 469.8 851.4 445.267 833 426.867C810.6 404.2 806.6 403 757 403C735.533 403 720.733 403.667 719.4 404.467Z" fill="#3762A4"/>
<path d="M355.4 687.4C349.533 689.133 341 694.467 337.267 699C332.6 704.467 329 714.467 329 722.333C329.133 742.333 344.6 757.667 365 757.667C398.067 757.667 413.533 717.933 389 695.933C385.933 693 381.4 689.933 379.133 689C372.467 686.2 362.333 685.533 355.4 687.4Z" fill="#3762A4"/>
<path d="M743.933 688.067C734.6 691.4 728.2 696.867 723.133 705.667C719.8 711.667 719.133 714.333 719.133 721.533C719.267 742.067 734.867 757.667 755 757.533C769.533 757.533 780.2 751.267 787 738.733C794.6 725 791.133 705.533 779.4 695.667C769 686.867 755.533 683.933 743.933 688.067Z" fill="#3762A4"/>
<path d="M1405.93 328.333C1387 334.067 1370.2 339.933 1368.73 341.267C1362.07 347.133 1362.33 339.533 1362.33 537.667V723H1401.67H1441V520.333C1441 408.867 1440.87 317.667 1440.73 317.8C1440.47 317.8 1424.87 322.6 1405.93 328.333Z" fill="#3762A4"/>
<path d="M1585 439.933C1524.07 446.2 1478.47 498.067 1471.53 569.134C1468.6 598.867 1474.6 631.8 1487.67 657.667C1502.07 686.467 1525.27 709.134 1551.4 720.334C1566.2 726.6 1577.13 728.734 1595 728.734C1619.67 728.867 1639.53 722.6 1662.33 707.667C1673.8 699.934 1697 678.334 1697 675.134C1697 672.6 1674.2 651.134 1667.13 646.867C1664.07 645.134 1659 643.8 1653.8 643.4C1646.47 642.734 1644.2 643.134 1637.53 646.334C1623.53 652.734 1615.27 655.134 1603.67 655.934C1583.67 657.267 1571.4 651.534 1561 636.067C1558.07 631.667 1555.67 627.534 1555.67 627C1555.67 626.467 1561.8 625.667 1569.4 625.267C1594.6 623.667 1612.87 619.134 1633.67 609C1662.73 595 1688.33 569.267 1704.87 537.534L1710.73 526.334L1705.93 514.6C1698.73 496.867 1690.07 483.8 1676.33 470.2C1665.8 459.667 1662.33 457.133 1651.53 451.933C1630.07 441.667 1607.4 437.667 1585 439.933ZM1610.33 516.6C1615.13 517.934 1629 526.6 1629 528.2C1629 528.734 1624.47 533.667 1619 539.267C1603.13 555.134 1585.8 562.867 1559.93 565L1549.13 565.934L1551.13 558.2C1555.8 540.2 1566.33 524.467 1577.67 518.6C1586.73 513.934 1598.47 513.134 1610.33 516.6Z" fill="#3762A4"/>
<path d="M2623.4 440.333C2596.07 444.6 2573.27 455.933 2551.93 475.8C2515.4 509.533 2497.67 559.133 2505.67 605.133C2513.27 648.734 2540.07 690.6 2574.87 713.8C2593.53 726.2 2610.2 731.4 2630.33 731.4C2646.6 731.4 2657 728.734 2673.53 720.467L2686.73 713.8L2685.93 721.667C2684.2 737.8 2673.27 756.734 2660.6 765.534C2650.47 772.467 2639.4 775.4 2627 774.467C2604.87 772.867 2582.73 764.467 2563 750.334C2543.13 736.067 2544.07 735.667 2516.47 767.667C2510.07 775 2503.93 782.734 2502.87 784.734C2498.47 793 2502.87 798.734 2524.33 812.6C2536.87 820.867 2564.73 835.4 2577.13 840.467C2597.93 848.734 2624.73 852.334 2648.07 849.8C2710.47 843 2746.47 800.2 2759.13 717.534C2761.13 704.734 2761.53 692.2 2761.67 636.334C2761.8 579.133 2762.07 568.6 2764.2 557.667C2770.07 525.933 2781.67 504.2 2801.93 487C2805.8 483.667 2809 480.733 2809 480.333C2809 479.4 2757 448.733 2752.47 447.133C2741.93 443 2735.27 446.467 2724.2 461.4C2719.93 467.4 2715.8 472.2 2715.27 472.333C2714.6 472.333 2710.87 469.533 2707 465.933C2684.87 446.333 2651.13 435.933 2623.4 440.333ZM2651.67 521.8C2672.73 531.533 2685.4 555.933 2685.4 586.333C2685.27 616.2 2672.73 640.334 2652.2 650.467C2642.33 655.267 2626.07 656.467 2615.8 653C2602.47 648.6 2590.07 634.067 2583.93 615.267C2581.13 606.467 2580.6 602.467 2580.47 587.667C2580.33 567.933 2581.8 560.2 2588.47 546.2C2601 519.667 2625.93 510.067 2651.67 521.8Z" fill="#3762A4"/>
<path d="M1874.6 441.8C1871.53 442.333 1859.4 446.6 1847.67 451.267C1829 458.6 1826.33 460.067 1826.73 462.333C1827.53 466.467 1918.2 702.867 1921.93 710.333C1928.73 724.2 1937.53 729.8 1947.93 726.867C1956.33 724.467 1972.6 707.4 1983.67 689.667C1993.8 673.133 2011.4 637.933 2020.47 615.933C2024.07 607.4 2027.27 600.333 2027.67 600.333C2028.07 600.333 2039.4 625.667 2052.87 656.733C2066.33 687.667 2078.07 714.333 2079.13 715.933C2080.47 718.067 2082.87 719 2088.47 719.8C2127.53 724.6 2160.73 680.867 2192.87 582.733C2196.6 571.267 2205.67 541.133 2213 515.8C2220.33 490.467 2227.13 467.8 2228.07 465.4L2229.8 461L2206.47 452.6C2172.07 440.2 2164.47 440.2 2155.8 452.867C2150.33 460.867 2147 469.667 2124.87 535.533C2106.33 590.867 2105.67 592.6 2104.07 588.467C2102.33 584.467 2099.8 575.933 2087.53 533.667C2071.53 479 2055 457.4 2025 452.067C2018.07 450.867 2015.93 451 2010.87 453C1995.27 459 1980.2 491.4 1959 565.4C1954.73 580.2 1950.87 591.933 1950.33 591.4C1949.8 590.867 1939 559.667 1926.33 522.333C1913.8 484.867 1902.2 452.333 1900.73 449.8C1897.67 445 1889.13 440.333 1883.67 440.467C1881.8 440.6 1877.8 441.133 1874.6 441.8Z" fill="#3762A4"/>
<path d="M2317.67 441.8C2296.6 444.6 2266.47 455.667 2261.13 462.6C2257.53 467 2257.67 471.133 2261.53 480.733C2263.93 486.6 2283.8 524.467 2285.8 526.733C2285.93 527 2291.13 524.733 2297.27 521.8C2310.73 515.267 2322.47 512.333 2335.53 512.333C2347.4 512.333 2354.07 514.2 2360.2 519.133C2365 523.267 2370.33 532.6 2370.33 537.267C2370.33 539.933 2369.4 540.067 2354.07 541C2305.53 543.667 2277.27 552.867 2255.93 573C2244.07 584.2 2237.13 595.133 2232.07 610.333C2227.13 625.533 2227.13 645.8 2232.07 661C2242.47 692.733 2267.53 716.333 2302.33 727.133C2310.73 729.8 2315.13 730.333 2329.67 730.2C2345.67 730.2 2347.93 729.8 2359.67 725.8C2374.07 720.867 2383.67 715.667 2393.93 707.4C2397.8 704.2 2401.27 701.667 2401.53 701.667C2401.8 701.667 2405.13 705.533 2408.87 710.2C2418.2 722.067 2443.27 748.6 2447.27 750.733C2449.13 751.8 2451.93 752.2 2453.4 751.8C2455 751.4 2465.93 741.533 2477.67 729.8C2504.73 702.6 2504.33 704.867 2485 684.733C2466.6 665.8 2457.8 653.933 2453.13 641.667C2446.2 623.8 2445 614.867 2443.67 571C2442.07 517.8 2440.33 506.333 2430.6 487.667C2419.27 466.2 2395 450.067 2364.6 443.8C2351.53 441 2329.67 440.067 2317.67 441.8ZM2362.87 604.733C2373.67 610.867 2375.8 623.8 2368.2 637.8C2357 658.2 2327.53 665.8 2313.67 651.8C2308.2 646.333 2306.87 639.667 2309.53 630.6C2316.6 607 2343.53 593.933 2362.87 604.733Z" fill="#3762A4"/>
<path d="M2929.53 441.8C2909.27 444.2 2886.73 454.2 2869.13 468.733C2834.07 497.667 2813.4 551.133 2818.33 600.333C2824.33 661 2859.93 709.267 2910.2 724.867C2949.8 737.267 2993 728.867 3024.87 702.6C3059.93 673.667 3080.6 620.2 3075.67 571C3068.73 501 3023.4 449.4 2962.2 441.667C2949.8 440.2 2943.27 440.2 2929.53 441.8ZM2962.73 518.467C2970.33 521 2981.27 530.6 2987.13 539.933C2989.67 543.667 2993.27 551.533 2995.27 557.267C2998.47 566.467 2998.87 569.533 2998.87 585C2998.87 600.467 2998.47 603.533 2995.27 612.733C2990.73 625.933 2984.73 635.267 2975.93 643.267C2967.4 650.733 2959.53 653.667 2947 653.667C2933.8 653.667 2926.33 650.733 2916.87 642.067C2891.93 618.867 2887.13 570.6 2906.87 539.933C2912.47 530.867 2923.53 521 2930.73 518.6C2938.33 515.8 2955 515.8 2962.73 518.467Z" fill="#3762A4"/>
<path d="M3255 443.133C3232.07 446.2 3204.73 457 3187.27 469.933C3182.2 473.667 3177.67 476.2 3177.27 475.533C3176.73 474.867 3173.27 469.8 3169.53 464.2C3165.8 458.733 3160.07 451.933 3157 449.133C3151.53 444.333 3151 444.067 3143.8 444.6C3137 445.133 3133.67 446.733 3109 461.533C3093.93 470.6 3081.4 478.2 3081.13 478.467C3080.87 478.733 3082.33 480.2 3084.47 481.8C3092.07 487.533 3108.47 505.267 3112.87 512.733C3115.27 516.867 3118.73 523.933 3120.6 528.333C3127.4 545.133 3127.67 550.067 3127.67 639.8V723H3165.67H3203.67V641.8V560.6L3209.13 552.467C3216.2 541.8 3229.67 529.667 3239.93 524.6C3258.2 515.667 3270.33 518.333 3277.67 533L3281.67 541L3282.07 631.933L3282.47 723H3320.47H3358.47L3358.07 615.267C3357.67 517.8 3357.4 506.867 3355.27 499.667C3347 471 3326.73 451.667 3298.33 445.133C3286.87 442.467 3266.6 441.533 3255 443.133Z" fill="#3762A4"/>
</svg>
